<?xml version="1.0" encoding="utf-8"?>
<!-- Generator: Adobe Illustrator 19.2.0, SVG Export Plug-In . SVG Version: 6.00 Build 0)  -->
<svg version="1.1" id="Layer_1" xmlns="http://www.w3.org/2000/svg" xmlns:xlink="http://www.w3.org/1999/xlink" x="0px" y="0px"
	 viewBox="0 0 792 612" style="enable-background:new 0 0 792 612;" xml:space="preserve">
<style type="text/css">
	.st0{fill:#FFFFFF;}
</style>
<path class="st0" d="M329.4,292.3l-7.4,2.1v16.7c0,1.3,0.4,2.7,1.1,4.1c0.6,1.3,1.6,2.6,2.7,3.9c1.4,1.6,2.9,2.9,3.6,3.4
	c0.7-0.6,2.2-1.8,3.6-3.4c1.2-1.3,2.1-2.6,2.7-3.9c0.7-1.5,1.1-2.8,1.1-4.1v-16.7L329.4,292.3z M332.1,312c-0.3,0.8-0.7,1.6-1.2,2.5
	c-0.6,1-1.3,1.8-1.6,2.2c-0.3-0.4-1-1.1-1.6-2.1c-0.5-0.8-0.9-1.7-1.2-2.5c-0.3-0.9-0.5-1.8-0.5-2.6l0-11.4l3.2-0.9l3.2,0.9l0,11.4
	C332.6,310.2,332.4,311.1,332.1,312z"/>
</svg>
